<?xml version="1.0" encoding="UTF-8"?>
<svg width="16px" height="16px" viewBox="0 0 16 16" version="1.1" xmlns="http://www.w3.org/2000/svg" xmlns:xlink="http://www.w3.org/1999/xlink">
    <!-- Generator: Sketch 63.1 (92452) - https://sketch.com -->
    <title>icon_women</title>
    <desc>Created with Sketch.</desc>
    <g id="页面-1" stroke="none" stroke-width="1" fill="none" fill-rule="evenodd">
        <g id="V1.0通讯录-成员-选中" transform="translate(-1004.000000, -221.000000)" fill="#E94857" fill-rule="nonzero">
            <g id="编组" transform="translate(1004.000000, 221.000000)">
                <path d="M9.46924084,10.1806283 L9.46924084,9.97120419 L11.7310209,9.97120419 C12.0660995,9.97120419 11.9268608,9.67801047 11.9268608,9.34293194 L11.9268608,4.31675393 C11.9268608,1.92931937 9.94594595,9.12030867e-16 7.54253927,0.00246955144 C5.13913259,0.00523560209 3.15821777,1.92931937 3.15821777,4.31675393 L3.15821777,9.38481675 C3.15821777,9.71989529 3.45141149,10.013089 3.78649002,10.013089 L5.6158377,10.013089 L5.6158377,10.2225131 L0.589659686,13.5314136 C0.212696335,13.7827225 0.00327225131,14.2015707 0.00327225131,14.6204188 L0.00327225131,15.960733 L15.0818063,15.960733 L15.0818063,14.6204188 C15.0818063,14.1596859 14.8723822,13.7408377 14.4954188,13.5314136 L9.46924084,10.1806283 Z M9.59489529,13.7408377 C8.21269634,15.0811518 7.50065445,13.0287958 7.50065445,13.0287958 C7.50065445,13.0287958 6.78861257,15.039267 5.40641361,13.7408377 C5.40641361,13.7408377 4.82002618,13.3638743 4.73625654,10.7251309 L7.50065445,13.0287958 L10.2650524,10.7251309 C10.2231675,13.3638743 9.59489529,13.7408377 9.59489529,13.7408377 L9.59489529,13.7408377 Z" id="形状"></path>
            </g>
        </g>
    </g>
</svg>