<?xml version="1.0" encoding="UTF-8"?>
<svg width="36px" height="36px" viewBox="0 0 36 36" version="1.1" xmlns="http://www.w3.org/2000/svg" xmlns:xlink="http://www.w3.org/1999/xlink">
    <!-- Generator: Sketch 63.1 (92452) - https://sketch.com -->
    <title>icon_groupchat</title>
    <desc>Created with Sketch.</desc>
    <g id="页面-1" stroke="none" stroke-width="1" fill="none" fill-rule="evenodd">
        <g id="V1.0会话-客户" transform="translate(-104.000000, -294.000000)">
            <g id="编组-2" transform="translate(88.000000, 276.000000)">
                <g id="群聊icon" transform="translate(16.000000, 18.000000)">
                    <g>
                        <rect id="矩形" fill="#1AAD19" x="0" y="0" width="36" height="36" rx="4"></rect>
                        <path d="M25.9766471,24.5011765 C25.7384118,24.0945949 25.3973339,23.7578992 24.9877059,23.5249412 L22.8647647,22.3369412 C21.5113183,21.5787284 20.2645903,20.644083 19.1572941,19.5575294 L19.1572941,19.0132941 C20.2378235,17.7580588 20.9535882,15.7637647 20.9535882,13.7763529 C20.9535882,11.9837647 20.7153529,10.5940588 19.9747059,9.67447058 C19.3081765,8.847 18.2419412,8.16141178 16.4636471,8.16141178 C14.6848235,8.16141178 13.6185882,8.847 12.9520588,9.67447058 C12.2119412,10.5940588 11.9731765,11.9837647 11.9731765,13.7763529 C11.9731765,15.7632353 12.6889412,17.7575294 13.7694706,19.0132941 L13.7694706,19.5575294 C12.6613323,20.6433303 11.4145346,21.5778946 10.0614706,22.3369412 L7.93958822,23.5249412 C7.52757262,23.7546776 7.18560306,24.09189 6.95011764,24.5006471 C6.71048374,24.9091712 6.58453916,25.3743802 6.58532262,25.848 C6.58532262,26.3467059 6.78547058,26.7993529 7.11158822,27.1281176 C7.44671742,27.467718 7.90400134,27.6587933 8.38111764,27.6585895 L24.5456471,27.6585895 C25.0401176,27.6585895 25.4890588,27.4574117 25.8151765,27.1281176 C26.1531454,26.7879076 26.3423923,26.3275466 26.3414413,25.848 C26.3388459,25.3748327 26.2131346,24.9104854 25.9766471,24.5006471 L25.9766471,24.5011765 Z" id="路径" fill="#FFFFFF" fill-rule="nonzero"></path>
                        <path d="M27.8740588,22.1267647 L26.3445882,21.4284706 C25.0519322,20.8400049 23.8711381,20.0317914 22.8547059,19.0397647 L22.8547059,18.1874118 C23.7748235,17.2434706 24.3847059,15.6404118 24.3847059,14.0511176 C24.3847059,11.7884117 23.9527059,10.3362353 21.7498235,10.0974706 C22.1135294,11.0133529 22.2845294,12.1600588 22.2845294,13.6514118 C22.2845294,15.5731765 21.6645883,17.5627059 20.6343529,19.0254706 C21.5455565,19.820203 22.5399076,20.5142253 23.6001176,21.0954706 L25.7564118,22.2739412 C26.3609298,22.6046436 26.8666704,23.0901033 27.2218235,23.6805882 C27.4711765,24.0945882 27.6315882,24.5509412 27.7067647,25.0242353 L27.7597059,25.0242353 C28.4336471,25.0242353 28.9757676,24.4874118 28.9757676,23.8277647 C28.9770629,23.0929872 28.5455121,22.4263658 27.8745882,22.1267647 L27.8740588,22.1267647 Z" id="路径" fill="#FFFFFF" fill-rule="nonzero"></path>
                    </g>
                </g>
            </g>
        </g>
    </g>
</svg>