<?xml version="1.0" encoding="UTF-8"?>
<svg width="16px" height="16px" viewBox="0 0 16 16" version="1.1" xmlns="http://www.w3.org/2000/svg" xmlns:xlink="http://www.w3.org/1999/xlink">
    <!-- Generator: Sketch 63.1 (92452) - https://sketch.com -->
    <title>icon_men</title>
    <desc>Created with Sketch.</desc>
    <g id="页面-1" stroke="none" stroke-width="1" fill="none" fill-rule="evenodd">
        <g id="V1.0通讯录-成员-选中" transform="translate(-1032.000000, -221.000000)" fill="#2B6BEB" fill-rule="nonzero">
            <g id="编组" transform="translate(1032.000000, 221.000000)">
                <path d="M15.5675676,13.4054054 C15.2381757,12.8695101 14.3771115,12.1706081 11.8834459,11.7989865 C11.3471284,11.71875 10.9480574,11.5962838 10.6503378,11.4548142 L8.828125,14.6283784 L8.359375,13.0848818 L7.77449324,13.0848818 L7.29307432,14.6326014 L5.20481419,11.3302365 C4.8902027,11.4991554 4.44890203,11.6469595 3.83445946,11.7377534 C1.37668919,12.1009291 0.864864865,12.7567568 0.485641892,13.4100507 C0.106418919,14.0633446 0.0188765963,15.9037162 0.0188765963,15.9037162 L15.9079392,15.9037162 C15.9079392,15.9037162 15.8969595,13.9413007 15.5675676,13.4054054 Z M7.77871622,12.9180743 L8.34881757,12.9180743 L8.53462838,12.0228041 L7.58445946,12.0228041 L7.77871622,12.9180743 Z M4.63260135,7.48099662 C4.89231419,8.15456081 5.36317568,8.72466216 5.97339527,9.10050676 C5.97339527,9.10050676 6.015625,9.66849662 6.03040541,10.1414696 C6.02407095,10.1942568 6.02618243,10.2512669 6.02618243,10.3061655 C6.02618243,10.7918074 6.36613176,11.0515203 6.81376689,11.3302365 C7.13893581,11.5308277 7.54222973,11.636402 7.98353041,11.636402 C8.42694257,11.636402 8.77533784,11.5308277 9.09839527,11.3302365 C9.54603041,11.0536318 9.84163851,10.7896959 9.84163851,10.3040541 C9.84163851,10.2913851 9.84163851,10.2766047 9.83952703,10.2639358 C9.84163851,10.2512669 9.84375,10.2470439 9.84163851,10.2407095 C9.82474662,10.1372466 9.92820946,9.22086149 9.92820946,9.22086149 C10.4518581,8.74788851 10.8530405,8.15456081 11.0958615,7.48944257 C11.6934122,7.11782095 11.9172297,7.06503378 12.0122466,6.62373311 C12.0122466,6.62373311 12.2107264,4.98733108 11.5793919,4.98733108 C11.5793919,4.98733108 11.3112331,4.98733108 11.3978041,4.64949324 C11.4632601,3.98226351 11.4632601,3.30869932 11.3978041,2.63935811 C11.3978041,2.21494932 11.4759291,0.994510135 10.5848818,0.829814189 C9.97043919,0.717905405 9.90076014,0.891047297 9.60726351,0.829814189 C9.31376689,0.768581081 8.95903716,0.0147804054 8.40371622,0.0147804054 L7.25295608,0.196368243 C6.69974662,0.196368243 6.78631757,0.369510135 6.48226351,0.403293919 C6.19087838,0.418074324 5.90160473,0.462415541 5.61655405,0.534206081 C4.75084459,0.707347973 4.41300676,1.84966216 4.36233108,2.265625 C4.30954392,2.68158784 4.30954392,3.88513514 4.36233108,4.52702703 C4.44890203,4.90709459 4.15540541,4.90709459 4.15540541,4.90709459 C3.61908784,4.90709459 3.86190878,6.54349662 3.86190878,6.54349662 C3.94003378,6.953125 3.86190878,7.16005068 4.63260135,7.48099662 Z" id="形状"></path>
            </g>
        </g>
    </g>
</svg>