<?xml version="1.0" encoding="UTF-8"?>
<svg width="96px" height="96px" viewBox="0 0 96 96" version="1.1" xmlns="http://www.w3.org/2000/svg" xmlns:xlink="http://www.w3.org/1999/xlink">
    <!-- Generator: Sketch 63.1 (92452) - https://sketch.com -->
    <title>None</title>
    <desc>Created with Sketch.</desc>
    <defs>
        <linearGradient x1="50%" y1="0%" x2="50%" y2="100%" id="linearGradient-1">
            <stop stop-color="#ECEFF2" offset="0%"></stop>
            <stop stop-color="#DCDDE3" offset="100%"></stop>
        </linearGradient>
        <polygon id="path-2" points="45.8569072 42.7562622 40.6347683 37.6973151 35.5758212 42.7562622 30.3536823 47.9784011 35.5758212 53.0373481 40.6347683 58.259487 45.8569072 53.0373481 40.6347683 47.9784011"></polygon>
        <filter x="-45.2%" y="-24.3%" width="190.3%" height="168.1%" filterUnits="objectBoundingBox" id="filter-3">
            <feOffset dx="0" dy="2" in="SourceAlpha" result="shadowOffsetOuter1"></feOffset>
            <feGaussianBlur stdDeviation="2" in="shadowOffsetOuter1" result="shadowBlurOuter1"></feGaussianBlur>
            <feColorMatrix values="0 0 0 0 0.430185688   0 0 0 0 0.466034496   0 0 0 0 0.537732111  0 0 0 0.1 0" type="matrix" in="shadowBlurOuter1"></feColorMatrix>
        </filter>
        <polygon id="path-4" points="63.3184341 42.7562622 58.0962952 37.6973151 53.0373481 42.7562622 47.9784011 47.9784011 53.0373481 53.0373481 58.0962952 58.259487 63.3184341 53.0373481 58.0962952 47.9784011"></polygon>
        <filter x="-45.6%" y="-24.3%" width="191.3%" height="168.1%" filterUnits="objectBoundingBox" id="filter-5">
            <feOffset dx="0" dy="2" in="SourceAlpha" result="shadowOffsetOuter1"></feOffset>
            <feGaussianBlur stdDeviation="2" in="shadowOffsetOuter1" result="shadowBlurOuter1"></feGaussianBlur>
            <feColorMatrix values="0 0 0 0 0.430185688   0 0 0 0 0.466034496   0 0 0 0 0.537732111  0 0 0 0.1 0" type="matrix" in="shadowBlurOuter1"></feColorMatrix>
        </filter>
    </defs>
    <g id="页面-1" stroke="none" stroke-width="1" fill="none" fill-rule="evenodd">
        <g id="V1.0通讯录-成员-默认" transform="translate(-866.000000, -464.000000)" fill-rule="nonzero">
            <g id="BizChat_logo" transform="translate(866.000000, 464.000000)">
                <g id="BizChat">
                    <path d="M61.5001017,79.1800277 C66.1647982,77.2326624 71.5578859,78.2487514 75.2314384,81.9223039 L75.2314384,81.9223039 L78.6584671,85.0229489 C70.3356832,91.8770061 59.7282136,95.9568022 48.1415929,95.9568022 C36.5549723,95.9568022 25.9475026,91.8770061 17.6247188,85.0229489 L17.6247188,85.0229489 L20.7253637,81.9223039 C24.4787761,78.3320834 30.0272986,77.1897405 34.759862,79.3112344 L34.759862,79.3112344 L35.3394628,79.5499684 C39.4037488,81.1788369 43.6167283,81.9223039 47.9784011,81.9223039 C52.5477726,81.9223039 56.9539523,81.1063447 61.1969402,79.3112344 L61.1969402,79.3112344 Z M10.9338533,17.6247188 L14.0344983,20.7253637 C17.6247188,24.4787761 18.7670616,30.0272986 16.6455677,34.759862 L16.6455677,34.759862 L16.4068338,35.3394628 C14.7779652,39.4037488 14.0344983,43.6167283 14.0344983,47.9784011 C14.0344983,52.5477726 14.8504575,56.9539523 16.6455677,61.1969402 C18.7670616,66.0926954 17.6247188,71.6412179 14.0344983,75.5578221 L14.0344983,75.5578221 L10.9338533,78.6584671 C4.07979601,70.3356832 -4.26325641e-14,59.7282136 -4.26325641e-14,48.1415929 C-4.26325641e-14,36.5549723 4.07979601,25.9475026 10.9338533,17.6247188 L10.9338533,17.6247188 Z M84.859757,17.2983351 C91.7138143,25.6211189 95.7936103,36.2285886 95.7936103,47.8152092 C95.7936103,59.4018299 91.7138143,70.0092995 84.859757,78.3320834 L84.859757,78.3320834 L81.759112,75.2314384 C78.1688916,71.4780261 77.0265487,65.9295035 79.1480426,61.1969402 L79.1480426,61.1969402 L79.3867766,60.6173394 C81.0156451,56.5530533 81.759112,52.3400739 81.759112,47.9784011 C81.759112,43.4090295 80.9431528,39.0028499 79.1480426,34.759862 C77.1897405,29.8641068 78.1688916,24.3155842 81.759112,20.3989801 L81.759112,20.3989801 Z M47.9784011,22.1940903 C62.1760912,22.1940903 73.59952,33.780711 73.7627119,47.9784011 L73.7627119,47.9784011 L73.7627119,73.7627119 L47.9784011,73.7627119 C33.780711,73.7627119 22.1940903,62.1760912 22.1940903,47.9784011 C22.1940903,33.780711 33.780711,22.1940903 47.9784011,22.1940903 Z M47.6520174,2.28379754e-13 C59.2386381,2.28379754e-13 69.8461077,4.07979601 78.1688916,10.9338533 L78.1688916,10.9338533 L75.0682466,14.0344983 C71.3148343,17.6247188 65.7663117,18.7670616 61.0337483,16.6455677 L61.0337483,16.6455677 L60.4541475,16.4068338 C56.3898615,14.7779652 52.1768821,14.0344983 47.8152092,14.0344983 C43.2458377,14.0344983 38.839658,14.8504575 34.5966702,16.6455677 L34.5966702,16.6455677 L34.2935087,16.7767744 C29.6288121,18.7241398 24.2357244,17.7080508 20.5621719,14.0344983 L20.5621719,14.0344983 L17.1351432,10.9338533 C25.4579271,4.07979601 36.0653967,2.28379754e-13 47.6520174,2.28379754e-13 Z" id="形状结合" fill="url(#linearGradient-1)"></path>
                    <g id="路径">
                        <use fill="black" fill-opacity="1" filter="url(#filter-3)" xlink:href="#path-2"></use>
                        <use fill="#F4F5F9" xlink:href="#path-2"></use>
                    </g>
                    <g id="路径">
                        <use fill="black" fill-opacity="1" filter="url(#filter-5)" xlink:href="#path-4"></use>
                        <use fill="#F4F5F9" xlink:href="#path-4"></use>
                    </g>
                </g>
            </g>
        </g>
    </g>
</svg>