<?xml version="1.0" encoding="UTF-8"?>
<svg width="20px" height="20px" viewBox="0 0 20 20" version="1.1" xmlns="http://www.w3.org/2000/svg" xmlns:xlink="http://www.w3.org/1999/xlink">
    <!-- Generator: Sketch 63.1 (92452) - https://sketch.com -->
    <title>tab_addresslist_pre</title>
    <desc>Created with Sketch.</desc>
    <g id="页面-1" stroke="none" stroke-width="1" fill="none" fill-rule="evenodd">
        <g id="V1.0通讯录-成员-默认" transform="translate(-278.000000, -24.000000)" fill="#414954" fill-rule="nonzero">
            <g id="通讯录icon" transform="translate(278.000000, 24.000000)">
                <g id="通讯录" transform="translate(1.000000, 0.000000)">
                    <path d="M14.1612253,0 C16.0685937,0 17.6149095,1.49263158 17.6149095,3.33315789 L17.6149095,16.6668421 C17.6149095,18.5078947 16.0685937,20 14.1612253,20 L3.45596217,20 C1.5901727,20 0.0696463867,18.5715789 0.00490953125,16.7863158 L0.00227796875,16.6668421 L0.00227796875,16 L1.5564885,16 C2.08806744,16 2.53280428,15.6126316 2.58754111,15.1026316 L2.59280428,15 C2.59280428,14.4868421 2.19069902,14.0578947 1.66227797,14.0052632 L1.5564885,14 L0.00227796875,14 L0.00227796875,11 L1.5564885,11 C2.08806744,11 2.53280428,10.6126316 2.58754111,10.1026316 L2.59280428,10 C2.59280428,9.48684211 2.19069902,9.05789475 1.66227797,9.00526316 L1.5564885,9 L0.00227796875,9 L0.00227796875,5.99894736 L1.5564885,6 C2.08806744,6 2.53280428,5.61263158 2.58754111,5.10263158 L2.59280428,5 C2.59280428,4.48684211 2.19069902,4.05789475 1.66227797,4.00526316 L1.5564885,4 L0.00227796875,4 L0.00227796875,3.33315789 C0.00227796875,1.49263158 1.54859375,0 3.45596217,0 L14.1612253,0 Z M10.1363636,10.2763636 L8.06454545,10.2763636 C6.5690909,10.2763636 5.41818182,11.4981818 5.41818182,12.8313636 L5.41818182,13.2327273 C5.41818182,13.5631818 5.69590908,13.8313636 6.03818182,13.8313636 L12.1627273,13.8313636 C12.5054545,13.8313636 12.7822727,13.5631818 12.7822727,13.2327273 L12.7822727,12.8313636 C12.7822727,11.4981818 11.6322727,10.2763636 10.1363636,10.2763636 Z M9.1,5.05454545 C7.71909092,5.05454545 6.68363637,6.05454545 6.68363637,7.27636363 C6.68363637,8.49863637 7.71909092,9.60954545 9.1,9.60954545 C10.3659091,9.60954545 11.4013636,8.49863637 11.4013636,7.27636363 C11.4013636,6.05454545 10.3659091,5.05454545 9.1,5.05454545 Z" id="形状"></path>
                </g>
            </g>
        </g>
    </g>
</svg>