<?xml version="1.0" encoding="UTF-8"?>
<svg width="20px" height="20px" viewBox="0 0 20 20" version="1.1" xmlns="http://www.w3.org/2000/svg" xmlns:xlink="http://www.w3.org/1999/xlink">
    <!-- Generator: Sketch 63.1 (92452) - https://sketch.com -->
    <title>tab_chat</title>
    <desc>Created with Sketch.</desc>
    <g id="页面-1" stroke="none" stroke-width="1" fill="none" fill-rule="evenodd">
        <g id="V1.0通讯录-成员-默认" transform="translate(-135.000000, -24.000000)" fill="#6F7685"  fill-rule="nonzero">
            <g id="会话icon" transform="translate(135.000000, 24.000000)">
                <g id="会话" transform="translate(1.000000, 1.000000)">
                    <path d="M8.99358034,0.0149237078 C11.374748,0.00831585147 13.6596212,0.954511203 15.3389543,2.64265929 C17.027526,4.32219743 17.9740752,6.60741726 17.9676859,8.98903047 C17.974185,11.3721293 17.0277209,13.6589389 15.3389543,15.3403878 C13.660356,17.0303546 11.3755246,17.9786871 8.99358034,17.9740888 L2.2523061,17.9740888 C2.00869417,17.9723979 1.79007812,17.8241408 1.69839772,17.5984324 C1.60671733,17.372724 1.66002734,17.1140134 1.83346953,16.9429363 C2.20643352,16.5759557 2.75889889,15.8579501 2.75690442,15.4869806 C2.75690442,15.4450969 2.74992382,15.4371191 2.73995153,15.4271468 C0.996734739,13.7392425 0.0141164934,11.4155123 0.0174843957,8.98903047 C0.0113960027,6.60708505 0.958714513,4.32174199 2.64820637,2.64265929 C4.32766562,0.954699537 6.6124566,0.0085382543 8.99358034,0.0149237078 Z M5.86527008,7.23988919 C5.09751778,7.23988919 4.47513157,7.8622754 4.47513157,8.6300277 C4.47513157,9.39778 5.09751778,10.0201662 5.86527008,10.0201662 C6.63302238,10.0201662 7.25540859,9.39778 7.25540859,8.6300277 C7.25540859,7.8622754 6.63302238,7.23988919 5.86527008,7.23988919 L5.86527008,7.23988919 Z M12.3223338,7.23988919 C11.5545815,7.23988919 10.9321953,7.8622754 10.9321953,8.6300277 C10.9321953,9.39778 11.5545815,10.0201662 12.3223338,10.0201662 C13.0900861,10.0201662 13.7124723,9.39778 13.7124723,8.6300277 C13.7124723,7.8622754 13.0900861,7.23988919 12.3223338,7.23988919 L12.3223338,7.23988919 Z" id="形状"></path>
                </g>
            </g>
        </g>
    </g>
</svg>