<?xml version="1.0" encoding="UTF-8"?>
<svg width="20px" height="20px" viewBox="0 0 20 20" version="1.1" xmlns="http://www.w3.org/2000/svg" xmlns:xlink="http://www.w3.org/1999/xlink">
    <!-- Generator: Sketch 63.1 (92452) - https://sketch.com -->
    <title>user_icon</title>
    <desc>Created with Sketch.</desc>
    <g id="页面-1" stroke="none" stroke-width="1" fill="none" fill-rule="evenodd">
        <g id="V1.0通讯录-成员-默认" transform="translate(-34.000000, -960.000000)" fill="#6F7685" fill-rule="nonzero">
            <g id="编组" transform="translate(34.000000, 960.000000)">
                <path d="M19.0206805,19.181675 C17.7037456,17.1369103 15.7197973,15.6209528 13.4199889,14.8597219 C16.1204492,13.6071924 17.9874204,10.91936 17.9874204,7.8052729 C17.9874204,3.49459413 14.4097434,0 9.99657951,0 C5.58341565,0 2.0057386,3.49459413 2.0057386,7.8052729 C2.0057386,10.91936 3.87270979,13.6071924 6.57294811,14.8597219 C4.27136396,15.6216033 2.2863059,17.139512 0.96914896,19.1864448 C0.799082883,19.4506568 0.641324888,19.7222392 0.496357539,20.0003614 L19.4963575,20.0003614 C19.3505489,19.7205832 19.1918269,19.4474071 19.0206805,19.181675 L19.0206805,19.181675 Z M9.99657951,12.3583488 C7.42219693,12.3583488 5.33525564,10.3198716 5.33525564,7.8052729 C5.33525564,7.44601353 5.6333584,7.15483349 6.00115905,7.15483349 C6.3689597,7.15483349 6.66706246,7.44601353 6.66706246,7.8052729 C6.66706246,9.60135291 8.15779823,11.0574699 9.99657951,11.0574699 C11.8353608,11.0574699 13.3260966,9.60135291 13.3260966,7.8052729 C13.3260966,7.44601353 13.6241993,7.15483349 13.992,7.15483349 C14.3598006,7.15483349 14.6579034,7.44601353 14.6579034,7.8052729 C14.6579034,10.3198716 12.5709621,12.3583488 9.99657951,12.3583488 Z" id="形状"></path>
            </g>
        </g>
    </g>
</svg>